<?xml version="1.0" encoding="UTF-8"?>
<svg xmlns="http://www.w3.org/2000/svg" width="1640" height="980" viewBox="0 0 1640 980">
  <defs>
    <marker id="arrow" viewBox="0 0 10 10" refX="9" refY="5" markerWidth="8" markerHeight="8" orient="auto-start-reverse">
      <path d="M 0 0 L 10 5 L 0 10 z" fill="#374151"/>
    </marker>
  </defs>
  <rect width="1640" height="980" fill="#FFFFFF"/>
  <path d="M 240 155 L 255 155 L 255 155 L 270 155" fill="none" stroke="#374151" stroke-width="2.5" marker-end="url(#arrow)"/>
  <path d="M 470 155 L 485 155 L 485 162 L 500 162" fill="none" stroke="#374151" stroke-width="2.5" marker-end="url(#arrow)"/>
  <path d="M 610 204 L 610 227 L 495 227 L 495 250" fill="none" stroke="#374151" stroke-width="2.5" marker-end="url(#arrow)"/>
  <path d="M 620 298 L 635 298 L 635 292 L 650 292" fill="none" stroke="#374151" stroke-width="2.5" marker-end="url(#arrow)"/>
  <path d="M 620 298 L 720 298 L 720 162 L 820 162" fill="none" stroke="#374151" stroke-width="2.5" marker-end="url(#arrow)"/>
  <path d="M 620 298 L 720 298 L 720 272 L 820 272" fill="none" stroke="#374151" stroke-width="2.5" marker-end="url(#arrow)"/>
  <path d="M 620 298 L 720 298 L 720 382 L 820 382" fill="none" stroke="#374151" stroke-width="2.5" marker-end="url(#arrow)"/>
  <path d="M 930 230 L 930 217 L 930 217 L 930 204" fill="none" stroke="#374151" stroke-width="2.5" marker-end="url(#arrow)"/>
  <path d="M 1040 162 L 1070 162 L 1070 166 L 1100 166" fill="none" stroke="#374151" stroke-width="2.5" marker-end="url(#arrow)"/>
  <path d="M 1040 162 L 1195 162 L 1195 166 L 1350 166" fill="none" stroke="#374151" stroke-width="2.5" marker-end="url(#arrow)"/>
  <path d="M 1040 162 L 1070 162 L 1070 296 L 1100 296" fill="none" stroke="#374151" stroke-width="2.5" marker-end="url(#arrow)"/>
  <path d="M 1040 162 L 1195 162 L 1195 296 L 1350 296" fill="none" stroke="#374151" stroke-width="2.5" marker-end="url(#arrow)"/>
  <path d="M 1040 162 L 1070 162 L 1070 426 L 1100 426" fill="none" stroke="#374151" stroke-width="2.5" marker-end="url(#arrow)"/>
  <path d="M 1040 382 L 1070 382 L 1070 166 L 1100 166" fill="none" stroke="#374151" stroke-width="2.5" marker-end="url(#arrow)"/>
  <path d="M 1040 382 L 1195 382 L 1195 166 L 1350 166" fill="none" stroke="#374151" stroke-width="2.5" marker-end="url(#arrow)"/>
  <path d="M 1040 382 L 1070 382 L 1070 296 L 1100 296" fill="none" stroke="#374151" stroke-width="2.5" marker-end="url(#arrow)"/>
  <path d="M 1040 382 L 1195 382 L 1195 296 L 1350 296" fill="none" stroke="#374151" stroke-width="2.5" marker-end="url(#arrow)"/>
  <path d="M 1040 382 L 1070 382 L 1070 426 L 1100 426" fill="none" stroke="#374151" stroke-width="2.5" marker-end="url(#arrow)"/>
  <path d="M 1460 342 L 1460 361 L 1460 361 L 1460 380" fill="none" stroke="#374151" stroke-width="2.5" marker-end="url(#arrow)"/>
  <path d="M 1210 212 L 1210 361 L 1210 361 L 1210 510" fill="none" stroke="#374151" stroke-width="2.5" marker-end="url(#arrow)"/>
  <path d="M 1460 212 L 1460 361 L 1460 361 L 1460 510" fill="none" stroke="#374151" stroke-width="2.5" marker-end="url(#arrow)"/>
  <path d="M 1210 472 L 1210 561 L 1330 561 L 1330 650" fill="none" stroke="#374151" stroke-width="2.5" marker-end="url(#arrow)"/>
  <path d="M 1210 594 L 1210 622 L 1330 622 L 1330 650" fill="none" stroke="#374151" stroke-width="2.5" marker-end="url(#arrow)"/>
  <path d="M 1460 594 L 1460 622 L 1330 622 L 1330 650" fill="none" stroke="#374151" stroke-width="2.5" marker-end="url(#arrow)"/>
  <g id="header-entry">
    <rect x="40" y="30" width="300" height="44" rx="14" ry="14" fill="#111827" stroke="#111827" stroke-width="2"/>
    <text x="190" y="57" text-anchor="middle" font-family="Helvetica, Arial, sans-serif" font-size="20" fill="#FFFFFF"><tspan x="190" dy="0">CLI Surface</tspan></text>
  </g>
  <g id="header-app">
    <rect x="370" y="30" width="320" height="44" rx="14" ry="14" fill="#111827" stroke="#111827" stroke-width="2"/>
    <text x="530" y="57" text-anchor="middle" font-family="Helvetica, Arial, sans-serif" font-size="20" fill="#FFFFFF"><tspan x="530" dy="0">Application</tspan></text>
  </g>
  <g id="header-usecase">
    <rect x="720" y="30" width="340" height="44" rx="14" ry="14" fill="#111827" stroke="#111827" stroke-width="2"/>
    <text x="890" y="57" text-anchor="middle" font-family="Helvetica, Arial, sans-serif" font-size="20" fill="#FFFFFF"><tspan x="890" dy="0">Use Cases</tspan></text>
  </g>
  <g id="header-infra">
    <rect x="1090" y="30" width="500" height="44" rx="14" ry="14" fill="#111827" stroke="#111827" stroke-width="2"/>
    <text x="1340" y="57" text-anchor="middle" font-family="Helvetica, Arial, sans-serif" font-size="20" fill="#FFFFFF"><tspan x="1340" dy="0">Coordination + Persistence</tspan></text>
  </g>
  <g id="user">
    <rect x="60" y="120" width="180" height="70" rx="12" ry="12" fill="#DBEAFE" stroke="#2563EB" stroke-width="2"/>
    <text x="150" y="160" text-anchor="middle" font-family="Helvetica, Arial, sans-serif" font-size="14" fill="#111827"><tspan x="150" dy="0">User / shell</tspan></text>
  </g>
  <g id="cli-entry">
    <rect x="270" y="120" width="200" height="70" rx="12" ry="12" fill="#DBEAFE" stroke="#2563EB" stroke-width="2"/>
    <text x="370" y="151" text-anchor="middle" font-family="Helvetica, Arial, sans-serif" font-size="14" fill="#111827"><tspan x="370" dy="0">bin/aipanel.ts</tspan><tspan x="370" dy="18">src/cli/aipanel.ts</tspan></text>
  </g>
  <g id="router">
    <rect x="500" y="120" width="220" height="84" rx="12" ry="12" fill="#EDE9FE" stroke="#7C3AED" stroke-width="2"/>
    <text x="610" y="158" text-anchor="middle" font-family="Helvetica, Arial, sans-serif" font-size="14" fill="#111827"><tspan x="610" dy="0">CommandRouter</tspan><tspan x="610" dy="18">parse + route</tspan></text>
  </g>
  <g id="app">
    <rect x="370" y="250" width="250" height="96" rx="12" ry="12" fill="#EDE9FE" stroke="#7C3AED" stroke-width="2"/>
    <text x="495" y="294" text-anchor="middle" font-family="Helvetica, Arial, sans-serif" font-size="14" fill="#111827"><tspan x="495" dy="0">AipanelApp</tspan><tspan x="495" dy="18">composition root</tspan></text>
  </g>
  <g id="renderer">
    <rect x="650" y="250" width="200" height="84" rx="12" ry="12" fill="#EDE9FE" stroke="#7C3AED" stroke-width="2"/>
    <text x="750" y="297" text-anchor="middle" font-family="Helvetica, Arial, sans-serif" font-size="14" fill="#111827"><tspan x="750" dy="0">ResultRenderer</tspan></text>
  </g>
  <g id="consult">
    <rect x="820" y="120" width="220" height="84" rx="12" ry="12" fill="#FCE7F3" stroke="#DB2777" stroke-width="2"/>
    <text x="930" y="167" text-anchor="middle" font-family="Helvetica, Arial, sans-serif" font-size="14" fill="#111827"><tspan x="930" dy="0">ConsultUseCase</tspan></text>
  </g>
  <g id="followup">
    <rect x="820" y="230" width="220" height="84" rx="12" ry="12" fill="#FCE7F3" stroke="#DB2777" stroke-width="2"/>
    <text x="930" y="277" text-anchor="middle" font-family="Helvetica, Arial, sans-serif" font-size="14" fill="#111827"><tspan x="930" dy="0">FollowupUseCase</tspan></text>
  </g>
  <g id="debug">
    <rect x="820" y="340" width="220" height="84" rx="12" ry="12" fill="#FCE7F3" stroke="#DB2777" stroke-width="2"/>
    <text x="930" y="387" text-anchor="middle" font-family="Helvetica, Arial, sans-serif" font-size="14" fill="#111827"><tspan x="930" dy="0">DebugUseCase</tspan></text>
  </g>
  <g id="session-manager">
    <rect x="1100" y="120" width="220" height="92" rx="12" ry="12" fill="#FEF3C7" stroke="#D97706" stroke-width="2"/>
    <text x="1210" y="153" text-anchor="middle" font-family="Helvetica, Arial, sans-serif" font-size="14" fill="#111827"><tspan x="1210" dy="0">SessionManager</tspan><tspan x="1210" dy="18">startOrResume()</tspan><tspan x="1210" dy="18">appendTurn()</tspan></text>
  </g>
  <g id="run-coordinator">
    <rect x="1350" y="120" width="220" height="92" rx="12" ry="12" fill="#FEF3C7" stroke="#D97706" stroke-width="2"/>
    <text x="1460" y="153" text-anchor="middle" font-family="Helvetica, Arial, sans-serif" font-size="14" fill="#111827"><tspan x="1460" dy="0">RunCoordinator</tspan><tspan x="1460" dy="18">createRun()</tspan><tspan x="1460" dy="18">createTask()</tspan></text>
  </g>
  <g id="context">
    <rect x="1100" y="250" width="220" height="92" rx="12" ry="12" fill="#FEF3C7" stroke="#D97706" stroke-width="2"/>
    <text x="1210" y="292" text-anchor="middle" font-family="Helvetica, Arial, sans-serif" font-size="14" fill="#111827"><tspan x="1210" dy="0">ContextCollector</tspan><tspan x="1210" dy="18">collect()</tspan></text>
  </g>
  <g id="provider-registry">
    <rect x="1350" y="250" width="220" height="92" rx="12" ry="12" fill="#FCE7F3" stroke="#BE185D" stroke-width="2"/>
    <text x="1460" y="301" text-anchor="middle" font-family="Helvetica, Arial, sans-serif" font-size="14" fill="#111827"><tspan x="1460" dy="0">ProviderRegistry</tspan></text>
  </g>
  <g id="claude">
    <rect x="1350" y="380" width="220" height="92" rx="12" ry="12" fill="#FCE7F3" stroke="#BE185D" stroke-width="2"/>
    <text x="1460" y="422" text-anchor="middle" font-family="Helvetica, Arial, sans-serif" font-size="14" fill="#111827"><tspan x="1460" dy="0">ClaudeCodeAdapter</tspan><tspan x="1460" dy="18">spawn(&quot;claude&quot;)</tspan></text>
  </g>
  <g id="artifact-repo">
    <rect x="1100" y="380" width="220" height="92" rx="12" ry="12" fill="#DCFCE7" stroke="#16A34A" stroke-width="2"/>
    <text x="1210" y="431" text-anchor="middle" font-family="Helvetica, Arial, sans-serif" font-size="14" fill="#111827"><tspan x="1210" dy="0">ArtifactRepository</tspan></text>
  </g>
  <g id="session-repo">
    <rect x="1100" y="510" width="220" height="84" rx="12" ry="12" fill="#DCFCE7" stroke="#16A34A" stroke-width="2"/>
    <text x="1210" y="557" text-anchor="middle" font-family="Helvetica, Arial, sans-serif" font-size="14" fill="#111827"><tspan x="1210" dy="0">SessionRepository</tspan></text>
  </g>
  <g id="run-repo">
    <rect x="1350" y="510" width="220" height="84" rx="12" ry="12" fill="#DCFCE7" stroke="#16A34A" stroke-width="2"/>
    <text x="1460" y="557" text-anchor="middle" font-family="Helvetica, Arial, sans-serif" font-size="14" fill="#111827"><tspan x="1460" dy="0">RunRepository</tspan></text>
  </g>
  <g id="storage">
    <rect x="1170" y="650" width="320" height="130" rx="12" ry="12" fill="#DCFCE7" stroke="#16A34A" stroke-width="2"/>
    <text x="1330" y="693" text-anchor="middle" font-family="Helvetica, Arial, sans-serif" font-size="14" fill="#111827"><tspan x="1330" dy="0">.aipanel</tspan><tspan x="1330" dy="18">sessions/</tspan><tspan x="1330" dy="18">runs/</tspan><tspan x="1330" dy="18">artifacts/</tspan></text>
  </g>
  <g id="note">
    <rect x="60" y="660" width="980" height="120" rx="12" ry="12" fill="#F9FAFB" stroke="#6B7280" stroke-width="2" stroke-dasharray="8 6"/>
    <text x="550" y="716" text-anchor="middle" font-family="Helvetica, Arial, sans-serif" font-size="14" fill="#111827"><tspan x="550" dy="0">Canonical ownership note</tspan><tspan x="550" dy="18">provider は state の正本ではなく、Session / Run / Artifact を aipanel 側が保持する。followup は provider native resume ではなく saved session を基準に継続する。</tspan></text>
  </g>
</svg>
