<?xml version="1.0" encoding="UTF-8"?>
<svg xmlns="http://www.w3.org/2000/svg" width="1680" height="900" viewBox="0 0 1680 900">
  <defs>
    <marker id="arrow" viewBox="0 0 10 10" refX="9" refY="5" markerWidth="8" markerHeight="8" orient="auto-start-reverse">
      <path d="M 0 0 L 10 5 L 0 10 z" fill="#374151"/>
    </marker>
  </defs>
  <rect width="1680" height="900" fill="#FFFFFF"/>
  <path d="M 175 204 L 175 222 L 175 222 L 175 240" fill="none" stroke="#374151" stroke-width="2.5" marker-end="url(#arrow)"/>
  <path d="M 175 324 L 175 342 L 190 342 L 190 360" fill="none" stroke="#374151" stroke-width="2.5" marker-end="url(#arrow)"/>
  <path d="M 310 408 L 335 408 L 335 366 L 360 366" fill="none" stroke="#374151" stroke-width="2.5" marker-end="url(#arrow)"/>
  <path d="M 310 408 L 465 408 L 465 366 L 620 366" fill="none" stroke="#374151" stroke-width="2.5" marker-end="url(#arrow)"/>
  <path d="M 310 408 L 335 408 L 335 516 L 360 516" fill="none" stroke="#374151" stroke-width="2.5" marker-end="url(#arrow)"/>
  <path d="M 580 516 L 600 516 L 600 516 L 620 516" fill="none" stroke="#374151" stroke-width="2.5" marker-end="url(#arrow)"/>
  <path d="M 620 516 L 465 516 L 465 705 L 310 705" fill="none" stroke="#374151" stroke-width="2.5" marker-end="url(#arrow)"/>
  <path d="M 840 366 L 890 366 L 890 262 L 940 262" fill="none" stroke="#374151" stroke-width="2.5" marker-end="url(#arrow)"/>
  <path d="M 840 366 L 890 366 L 890 382 L 940 382" fill="none" stroke="#374151" stroke-width="2.5" marker-end="url(#arrow)"/>
  <path d="M 840 366 L 890 366 L 890 502 L 940 502" fill="none" stroke="#374151" stroke-width="2.5" marker-end="url(#arrow)"/>
  <path d="M 1120 262 L 1150 262 L 1150 386 L 1180 386" fill="none" stroke="#374151" stroke-width="2.5" marker-end="url(#arrow)"/>
  <path d="M 1120 382 L 1150 382 L 1150 386 L 1180 386" fill="none" stroke="#374151" stroke-width="2.5" marker-end="url(#arrow)"/>
  <path d="M 1120 502 L 1150 502 L 1150 386 L 1180 386" fill="none" stroke="#374151" stroke-width="2.5" marker-end="url(#arrow)"/>
  <path d="M 1400 386 L 1425 386 L 1425 386 L 1450 386" fill="none" stroke="#374151" stroke-width="2.5" marker-end="url(#arrow)"/>
  <path d="M 1290 432 L 1290 466 L 1290 466 L 1290 500" fill="none" stroke="#374151" stroke-width="2.5" marker-end="url(#arrow)"/>
  <path d="M 1450 386 L 1425 386 L 1425 546 L 1400 546" fill="none" stroke="#374151" stroke-width="2.5" marker-end="url(#arrow)"/>
  <path d="M 1400 546 L 1425 546 L 1425 546 L 1450 546" fill="none" stroke="#374151" stroke-width="2.5" marker-end="url(#arrow)"/>
  <path d="M 1290 592 L 1290 621 L 1310 621 L 1310 650" fill="none" stroke="#374151" stroke-width="2.5" marker-end="url(#arrow)"/>
  <path d="M 1450 546 L 1445 546 L 1445 705 L 1440 705" fill="none" stroke="#374151" stroke-width="2.5" marker-end="url(#arrow)"/>
  <path d="M 1180 705 L 745 705 L 745 705 L 310 705" fill="none" stroke="#374151" stroke-width="2.5" marker-end="url(#arrow)"/>
  <g id="header">
    <rect x="40" y="30" width="1600" height="44" rx="14" ry="14" fill="#111827" stroke="#111827" stroke-width="2"/>
    <text x="840" y="57" text-anchor="middle" font-family="Helvetica, Arial, sans-serif" font-size="20" fill="#FFFFFF"><tspan x="840" dy="0">Orchestrated Flow: debug</tspan></text>
  </g>
  <g id="cli">
    <rect x="70" y="120" width="210" height="84" rx="12" ry="12" fill="#DBEAFE" stroke="#2563EB" stroke-width="2"/>
    <text x="175" y="158" text-anchor="middle" font-family="Helvetica, Arial, sans-serif" font-size="14" fill="#111827"><tspan x="175" dy="0">CLI command</tspan><tspan x="175" dy="18">debug</tspan></text>
  </g>
  <g id="router">
    <rect x="70" y="240" width="210" height="84" rx="12" ry="12" fill="#EDE9FE" stroke="#7C3AED" stroke-width="2"/>
    <text x="175" y="287" text-anchor="middle" font-family="Helvetica, Arial, sans-serif" font-size="14" fill="#111827"><tspan x="175" dy="0">CommandRouter</tspan></text>
  </g>
  <g id="usecase">
    <rect x="70" y="360" width="240" height="96" rx="12" ry="12" fill="#FCE7F3" stroke="#DB2777" stroke-width="2"/>
    <text x="190" y="413" text-anchor="middle" font-family="Helvetica, Arial, sans-serif" font-size="14" fill="#111827"><tspan x="190" dy="0">DebugUseCase</tspan></text>
  </g>
  <g id="session">
    <rect x="360" y="320" width="220" height="92" rx="12" ry="12" fill="#FEF3C7" stroke="#D97706" stroke-width="2"/>
    <text x="470" y="371" text-anchor="middle" font-family="Helvetica, Arial, sans-serif" font-size="14" fill="#111827"><tspan x="470" dy="0">SessionManager</tspan></text>
  </g>
  <g id="run">
    <rect x="620" y="320" width="220" height="92" rx="12" ry="12" fill="#FEF3C7" stroke="#D97706" stroke-width="2"/>
    <text x="730" y="362" text-anchor="middle" font-family="Helvetica, Arial, sans-serif" font-size="14" fill="#111827"><tspan x="730" dy="0">RunCoordinator</tspan><tspan x="730" dy="18">createRun(mode=orchestrated)</tspan></text>
  </g>
  <g id="context">
    <rect x="360" y="470" width="220" height="92" rx="12" ry="12" fill="#FEF3C7" stroke="#D97706" stroke-width="2"/>
    <text x="470" y="521" text-anchor="middle" font-family="Helvetica, Arial, sans-serif" font-size="14" fill="#111827"><tspan x="470" dy="0">ContextCollector</tspan></text>
  </g>
  <g id="context-artifact">
    <rect x="620" y="470" width="220" height="92" rx="12" ry="12" fill="#DCFCE7" stroke="#16A34A" stroke-width="2"/>
    <text x="730" y="512" text-anchor="middle" font-family="Helvetica, Arial, sans-serif" font-size="14" fill="#111827"><tspan x="730" dy="0">ArtifactRepository</tspan><tspan x="730" dy="18">context-bundle</tspan></text>
  </g>
  <g id="planner">
    <rect x="940" y="220" width="180" height="84" rx="12" ry="12" fill="#FCE7F3" stroke="#DB2777" stroke-width="2"/>
    <text x="1030" y="267" text-anchor="middle" font-family="Helvetica, Arial, sans-serif" font-size="14" fill="#111827"><tspan x="1030" dy="0">planner task</tspan></text>
  </g>
  <g id="reviewer">
    <rect x="940" y="340" width="180" height="84" rx="12" ry="12" fill="#FCE7F3" stroke="#DB2777" stroke-width="2"/>
    <text x="1030" y="387" text-anchor="middle" font-family="Helvetica, Arial, sans-serif" font-size="14" fill="#111827"><tspan x="1030" dy="0">reviewer task</tspan></text>
  </g>
  <g id="validator">
    <rect x="940" y="460" width="180" height="84" rx="12" ry="12" fill="#FCE7F3" stroke="#DB2777" stroke-width="2"/>
    <text x="1030" y="507" text-anchor="middle" font-family="Helvetica, Arial, sans-serif" font-size="14" fill="#111827"><tspan x="1030" dy="0">validator task</tspan></text>
  </g>
  <g id="provider">
    <rect x="1180" y="340" width="220" height="92" rx="12" ry="12" fill="#FCE7F3" stroke="#BE185D" stroke-width="2"/>
    <text x="1290" y="382" text-anchor="middle" font-family="Helvetica, Arial, sans-serif" font-size="14" fill="#111827"><tspan x="1290" dy="0">ProviderRegistry</tspan><tspan x="1290" dy="18">ClaudeCodeAdapter</tspan></text>
  </g>
  <g id="task-artifacts">
    <rect x="1450" y="340" width="180" height="92" rx="12" ry="12" fill="#DCFCE7" stroke="#16A34A" stroke-width="2"/>
    <text x="1540" y="382" text-anchor="middle" font-family="Helvetica, Arial, sans-serif" font-size="14" fill="#111827"><tspan x="1540" dy="0">ArtifactRepository</tspan><tspan x="1540" dy="18">per-task outputs</tspan></text>
  </g>
  <g id="results">
    <rect x="1180" y="500" width="220" height="92" rx="12" ry="12" fill="#FEF3C7" stroke="#D97706" stroke-width="2"/>
    <text x="1290" y="542" text-anchor="middle" font-family="Helvetica, Arial, sans-serif" font-size="14" fill="#111827"><tspan x="1290" dy="0">ResponseNormalizer</tspan><tspan x="1290" dy="18">TaskResult[]</tspan></text>
  </g>
  <g id="comparison">
    <rect x="1450" y="500" width="180" height="92" rx="12" ry="12" fill="#FEF3C7" stroke="#D97706" stroke-width="2"/>
    <text x="1540" y="542" text-anchor="middle" font-family="Helvetica, Arial, sans-serif" font-size="14" fill="#111827"><tspan x="1540" dy="0">ComparisonEngine</tspan><tspan x="1540" dy="18">ComparisonReport</tspan></text>
  </g>
  <g id="finish">
    <rect x="1180" y="650" width="260" height="110" rx="12" ry="12" fill="#FEF3C7" stroke="#D97706" stroke-width="2"/>
    <text x="1310" y="692" text-anchor="middle" font-family="Helvetica, Arial, sans-serif" font-size="14" fill="#111827"><tspan x="1310" dy="0">RunCoordinator save</tspan><tspan x="1310" dy="18">appendAssistantTurn</tspan><tspan x="1310" dy="18">finalSummary</tspan></text>
  </g>
  <g id="storage">
    <rect x="70" y="640" width="240" height="130" rx="12" ry="12" fill="#DCFCE7" stroke="#16A34A" stroke-width="2"/>
    <text x="190" y="683" text-anchor="middle" font-family="Helvetica, Arial, sans-serif" font-size="14" fill="#111827"><tspan x="190" dy="0">.aipanel</tspan><tspan x="190" dy="18">runs/</tspan><tspan x="190" dy="18">artifacts/</tspan><tspan x="190" dy="18">session update</tspan></text>
  </g>
  <g id="note">
    <rect x="360" y="660" width="740" height="100" rx="12" ry="12" fill="#F9FAFB" stroke="#6B7280" stroke-width="2" stroke-dasharray="8 6"/>
    <text x="730" y="706" text-anchor="middle" font-family="Helvetica, Arial, sans-serif" font-size="14" fill="#111827"><tspan x="730" dy="0">Role note</tspan><tspan x="730" dy="18">planner / reviewer / validator は phase 1 では同一 provider を role 別に連続実行する。ledger 上では RunTask / TaskResult / ProviderResponse / Artifact に分かれて記録される。</tspan></text>
  </g>
</svg>
