<?xml version="1.0" encoding="UTF-8"?>
<svg xmlns="http://www.w3.org/2000/svg" width="1640" height="860" viewBox="0 0 1640 860">
  <defs>
    <marker id="arrow" viewBox="0 0 10 10" refX="9" refY="5" markerWidth="8" markerHeight="8" orient="auto-start-reverse">
      <path d="M 0 0 L 10 5 L 0 10 z" fill="#374151"/>
    </marker>
  </defs>
  <rect width="1640" height="860" fill="#FFFFFF"/>
  <path d="M 175 204 L 175 227 L 175 227 L 175 250" fill="none" stroke="#374151" stroke-width="2.5" marker-end="url(#arrow)"/>
  <path d="M 175 334 L 175 357 L 190 357 L 190 380" fill="none" stroke="#374151" stroke-width="2.5" marker-end="url(#arrow)"/>
  <path d="M 310 428 L 335 428 L 335 428 L 360 428" fill="none" stroke="#374151" stroke-width="2.5" marker-end="url(#arrow)"/>
  <path d="M 310 428 L 335 428 L 335 568 L 360 568" fill="none" stroke="#374151" stroke-width="2.5" marker-end="url(#arrow)"/>
  <path d="M 310 428 L 485 428 L 485 428 L 660 428" fill="none" stroke="#374151" stroke-width="2.5" marker-end="url(#arrow)"/>
  <path d="M 900 428 L 925 428 L 925 428 L 950 428" fill="none" stroke="#374151" stroke-width="2.5" marker-end="url(#arrow)"/>
  <path d="M 950 428 L 640 428 L 640 710 L 330 710" fill="none" stroke="#374151" stroke-width="2.5" marker-end="url(#arrow)"/>
  <path d="M 600 568 L 630 568 L 630 568 L 660 568" fill="none" stroke="#374151" stroke-width="2.5" marker-end="url(#arrow)"/>
  <path d="M 920 568 L 935 568 L 935 568 L 950 568" fill="none" stroke="#374151" stroke-width="2.5" marker-end="url(#arrow)"/>
  <path d="M 920 568 L 1075 568 L 1075 498 L 1230 498" fill="none" stroke="#374151" stroke-width="2.5" marker-end="url(#arrow)"/>
  <path d="M 1180 568 L 1205 568 L 1205 498 L 1230 498" fill="none" stroke="#374151" stroke-width="2.5" marker-end="url(#arrow)"/>
  <path d="M 1360 546 L 1360 573 L 1380 573 L 1380 600" fill="none" stroke="#374151" stroke-width="2.5" marker-end="url(#arrow)"/>
  <path d="M 600 428 L 915 428 L 915 656 L 1230 656" fill="none" stroke="#374151" stroke-width="2.5" marker-end="url(#arrow)"/>
  <path d="M 1230 656 L 780 656 L 780 710 L 330 710" fill="none" stroke="#374151" stroke-width="2.5" marker-end="url(#arrow)"/>
  <path d="M 1230 656 L 1200 656 L 1200 712 L 1170 712" fill="none" stroke="#374151" stroke-width="2.5" marker-end="url(#arrow)"/>
  <g id="header">
    <rect x="40" y="30" width="1560" height="44" rx="14" ry="14" fill="#111827" stroke="#111827" stroke-width="2"/>
    <text x="820" y="57" text-anchor="middle" font-family="Helvetica, Arial, sans-serif" font-size="20" fill="#FFFFFF"><tspan x="820" dy="0">Direct Flow: consult / followup</tspan></text>
  </g>
  <g id="cli">
    <rect x="70" y="120" width="210" height="84" rx="12" ry="12" fill="#DBEAFE" stroke="#2563EB" stroke-width="2"/>
    <text x="175" y="158" text-anchor="middle" font-family="Helvetica, Arial, sans-serif" font-size="14" fill="#111827"><tspan x="175" dy="0">CLI command</tspan><tspan x="175" dy="18">consult / followup</tspan></text>
  </g>
  <g id="router">
    <rect x="70" y="250" width="210" height="84" rx="12" ry="12" fill="#EDE9FE" stroke="#7C3AED" stroke-width="2"/>
    <text x="175" y="297" text-anchor="middle" font-family="Helvetica, Arial, sans-serif" font-size="14" fill="#111827"><tspan x="175" dy="0">CommandRouter</tspan></text>
  </g>
  <g id="usecase">
    <rect x="70" y="380" width="240" height="96" rx="12" ry="12" fill="#FCE7F3" stroke="#DB2777" stroke-width="2"/>
    <text x="190" y="424" text-anchor="middle" font-family="Helvetica, Arial, sans-serif" font-size="14" fill="#111827"><tspan x="190" dy="0">ConsultUseCase</tspan><tspan x="190" dy="18">or FollowupUseCase</tspan></text>
  </g>
  <g id="session">
    <rect x="360" y="380" width="240" height="96" rx="12" ry="12" fill="#FEF3C7" stroke="#D97706" stroke-width="2"/>
    <text x="480" y="415" text-anchor="middle" font-family="Helvetica, Arial, sans-serif" font-size="14" fill="#111827"><tspan x="480" dy="0">SessionManager</tspan><tspan x="480" dy="18">startOrResume()</tspan><tspan x="480" dy="18">appendUserTurn()</tspan></text>
  </g>
  <g id="run">
    <rect x="360" y="520" width="240" height="96" rx="12" ry="12" fill="#FEF3C7" stroke="#D97706" stroke-width="2"/>
    <text x="480" y="555" text-anchor="middle" font-family="Helvetica, Arial, sans-serif" font-size="14" fill="#111827"><tspan x="480" dy="0">RunCoordinator</tspan><tspan x="480" dy="18">createRun()</tspan><tspan x="480" dy="18">createTask()</tspan></text>
  </g>
  <g id="context">
    <rect x="660" y="380" width="240" height="96" rx="12" ry="12" fill="#FEF3C7" stroke="#D97706" stroke-width="2"/>
    <text x="780" y="424" text-anchor="middle" font-family="Helvetica, Arial, sans-serif" font-size="14" fill="#111827"><tspan x="780" dy="0">ContextCollector</tspan><tspan x="780" dy="18">collect()</tspan></text>
  </g>
  <g id="context-artifact">
    <rect x="950" y="380" width="230" height="96" rx="12" ry="12" fill="#DCFCE7" stroke="#16A34A" stroke-width="2"/>
    <text x="1065" y="424" text-anchor="middle" font-family="Helvetica, Arial, sans-serif" font-size="14" fill="#111827"><tspan x="1065" dy="0">ArtifactRepository</tspan><tspan x="1065" dy="18">context-bundle</tspan></text>
  </g>
  <g id="provider">
    <rect x="660" y="520" width="260" height="96" rx="12" ry="12" fill="#FCE7F3" stroke="#BE185D" stroke-width="2"/>
    <text x="790" y="564" text-anchor="middle" font-family="Helvetica, Arial, sans-serif" font-size="14" fill="#111827"><tspan x="790" dy="0">ProviderRegistry</tspan><tspan x="790" dy="18">ClaudeCodeAdapter</tspan></text>
  </g>
  <g id="raw-artifacts">
    <rect x="950" y="520" width="230" height="96" rx="12" ry="12" fill="#DCFCE7" stroke="#16A34A" stroke-width="2"/>
    <text x="1065" y="564" text-anchor="middle" font-family="Helvetica, Arial, sans-serif" font-size="14" fill="#111827"><tspan x="1065" dy="0">ArtifactRepository</tspan><tspan x="1065" dy="18">raw text + raw json</tspan></text>
  </g>
  <g id="normalize">
    <rect x="1230" y="450" width="260" height="96" rx="12" ry="12" fill="#FEF3C7" stroke="#D97706" stroke-width="2"/>
    <text x="1360" y="485" text-anchor="middle" font-family="Helvetica, Arial, sans-serif" font-size="14" fill="#111827"><tspan x="1360" dy="0">ResponseNormalizer</tspan><tspan x="1360" dy="18">ProviderResponse</tspan><tspan x="1360" dy="18">TaskResult</tspan></text>
  </g>
  <g id="finish">
    <rect x="1230" y="600" width="300" height="112" rx="12" ry="12" fill="#FEF3C7" stroke="#D97706" stroke-width="2"/>
    <text x="1380" y="643" text-anchor="middle" font-family="Helvetica, Arial, sans-serif" font-size="14" fill="#111827"><tspan x="1380" dy="0">RunCoordinator save</tspan><tspan x="1380" dy="18">SessionManager appendAssistantTurn</tspan><tspan x="1380" dy="18">update ProviderRef</tspan></text>
  </g>
  <g id="storage">
    <rect x="70" y="650" width="260" height="120" rx="12" ry="12" fill="#DCFCE7" stroke="#16A34A" stroke-width="2"/>
    <text x="200" y="688" text-anchor="middle" font-family="Helvetica, Arial, sans-serif" font-size="14" fill="#111827"><tspan x="200" dy="0">.aipanel</tspan><tspan x="200" dy="18">sessions/</tspan><tspan x="200" dy="18">runs/</tspan><tspan x="200" dy="18">artifacts/</tspan></text>
  </g>
  <g id="output">
    <rect x="950" y="670" width="220" height="84" rx="12" ry="12" fill="#EDE9FE" stroke="#7C3AED" stroke-width="2"/>
    <text x="1060" y="717" text-anchor="middle" font-family="Helvetica, Arial, sans-serif" font-size="14" fill="#111827"><tspan x="1060" dy="0">ResultRenderer</tspan></text>
  </g>
  <g id="note">
    <rect x="360" y="680" width="520" height="90" rx="12" ry="12" fill="#F9FAFB" stroke="#6B7280" stroke-width="2" stroke-dasharray="8 6"/>
    <text x="620" y="721" text-anchor="middle" font-family="Helvetica, Arial, sans-serif" font-size="14" fill="#111827"><tspan x="620" dy="0">Followup note</tspan><tspan x="620" dy="18">followup は Claude native resume を正本にせず、保存済み Session transcript と context artifact を基準に継続する。</tspan></text>
  </g>
</svg>
