<?xml version="1.0" encoding="UTF-8"?>
<svg xmlns="http://www.w3.org/2000/svg" width="1760" height="1140" viewBox="0 0 1760 1140">
  <defs>
    <marker id="arrow" viewBox="0 0 10 10" refX="9" refY="5" markerWidth="8" markerHeight="8" orient="auto-start-reverse">
      <path d="M 0 0 L 10 5 L 0 10 z" fill="#374151"/>
    </marker>
  </defs>
  <rect width="1760" height="1140" fill="#FFFFFF"/>
  <path d="M 640 155 L 520 155 L 520 370 L 400 370" fill="none" stroke="#374151" stroke-width="2.5" marker-end="url(#arrow)"/>
  <path d="M 640 155 L 740 155 L 740 380 L 840 380" fill="none" stroke="#374151" stroke-width="2.5" marker-end="url(#arrow)"/>
  <path d="M 880 210 L 880 560 L 680 560 L 680 910" fill="none" stroke="#374151" stroke-width="2.5" marker-end="url(#arrow)"/>
  <path d="M 880 210 L 880 560 L 1060 560 L 1060 910" fill="none" stroke="#374151" stroke-width="2.5" marker-end="url(#arrow)"/>
  <path d="M 230 460 L 230 490 L 230 490 L 230 520" fill="none" stroke="#374151" stroke-width="2.5" marker-end="url(#arrow)"/>
  <path d="M 230 460 L 230 575 L 230 575 L 230 690" fill="none" stroke="#374151" stroke-width="2.5" marker-end="url(#arrow)"/>
  <path d="M 650 500 L 650 530 L 570 530 L 570 560" fill="none" stroke="#374151" stroke-width="2.5" marker-end="url(#arrow)"/>
  <path d="M 650 500 L 650 530 L 830 530 L 830 560" fill="none" stroke="#374151" stroke-width="2.5" marker-end="url(#arrow)"/>
  <path d="M 840 380 L 910 380 L 910 625 L 980 625" fill="none" stroke="#374151" stroke-width="2.5" marker-end="url(#arrow)"/>
  <path d="M 840 380 L 1050 380 L 1050 625 L 1260 625" fill="none" stroke="#374151" stroke-width="2.5" marker-end="url(#arrow)"/>
  <path d="M 840 380 L 910 380 L 910 795 L 980 795" fill="none" stroke="#374151" stroke-width="2.5" marker-end="url(#arrow)"/>
  <path d="M 840 380 L 1050 380 L 1050 795 L 1260 795" fill="none" stroke="#374151" stroke-width="2.5" marker-end="url(#arrow)"/>
  <path d="M 840 990 L 870 990 L 870 985 L 900 985" fill="none" stroke="#374151" stroke-width="2.5" marker-end="url(#arrow)"/>
  <path d="M 370 585 L 445 585 L 445 990 L 520 990" fill="none" stroke="#374151" stroke-width="2.5" marker-end="url(#arrow)"/>
  <path d="M 830 690 L 830 800 L 680 800 L 680 910" fill="none" stroke="#374151" stroke-width="2.5" marker-end="url(#arrow)"/>
  <path d="M 980 625 L 910 625 L 910 990 L 840 990" fill="none" stroke="#374151" stroke-width="2.5" marker-end="url(#arrow)"/>
  <path d="M 1260 625 L 1050 625 L 1050 990 L 840 990" fill="none" stroke="#374151" stroke-width="2.5" marker-end="url(#arrow)"/>
  <g id="header">
    <rect x="560" y="30" width="640" height="44" rx="14" ry="14" fill="#111827" stroke="#111827" stroke-width="2"/>
    <text x="880" y="57" text-anchor="middle" font-family="Helvetica, Arial, sans-serif" font-size="20" fill="#FFFFFF"><tspan x="880" dy="0">Persistence Model: .aipanel</tspan></text>
  </g>
  <g id="storage">
    <rect x="640" y="100" width="480" height="110" rx="12" ry="12" fill="#DCFCE7" stroke="#16A34A" stroke-width="2"/>
    <text x="880" y="133" text-anchor="middle" font-family="Helvetica, Arial, sans-serif" font-size="14" fill="#111827"><tspan x="880" dy="0">.aipanel</tspan><tspan x="880" dy="18">sessions/*.json</tspan><tspan x="880" dy="18">runs/*.json</tspan><tspan x="880" dy="18">artifacts/&lt;runId&gt;/...</tspan></text>
  </g>
  <g id="session">
    <rect x="60" y="280" width="340" height="180" rx="12" ry="12" fill="#E0F2FE" stroke="#0284C7" stroke-width="2"/>
    <text x="230" y="330" text-anchor="middle" font-family="Helvetica, Arial, sans-serif" font-size="14" fill="#111827"><tspan x="230" dy="0">Session document</tspan><tspan x="230" dy="18">sessionId</tspan><tspan x="230" dy="18">title</tspan><tspan x="230" dy="18">status</tspan><tspan x="230" dy="18">providerRefs[]</tspan><tspan x="230" dy="18">turns[]</tspan></text>
  </g>
  <g id="session-turn">
    <rect x="90" y="520" width="280" height="130" rx="12" ry="12" fill="#E0F2FE" stroke="#0284C7" stroke-width="2"/>
    <text x="230" y="554" text-anchor="middle" font-family="Helvetica, Arial, sans-serif" font-size="14" fill="#111827"><tspan x="230" dy="0">SessionTurn</tspan><tspan x="230" dy="18">turnId</tspan><tspan x="230" dy="18">role</tspan><tspan x="230" dy="18">content</tspan><tspan x="230" dy="18">artifactIds[]</tspan></text>
  </g>
  <g id="provider-ref">
    <rect x="90" y="690" width="280" height="120" rx="12" ry="12" fill="#E0F2FE" stroke="#0284C7" stroke-width="2"/>
    <text x="230" y="728" text-anchor="middle" font-family="Helvetica, Arial, sans-serif" font-size="14" fill="#111827"><tspan x="230" dy="0">ProviderRef</tspan><tspan x="230" dy="18">provider</tspan><tspan x="230" dy="18">providerSessionId</tspan><tspan x="230" dy="18">workingDirectory</tspan></text>
  </g>
  <g id="run">
    <rect x="460" y="260" width="380" height="240" rx="12" ry="12" fill="#E0F2FE" stroke="#0284C7" stroke-width="2"/>
    <text x="650" y="286" text-anchor="middle" font-family="Helvetica, Arial, sans-serif" font-size="14" fill="#111827"><tspan x="650" dy="0">Run document</tspan><tspan x="650" dy="18">runId</tspan><tspan x="650" dy="18">sessionId</tspan><tspan x="650" dy="18">command</tspan><tspan x="650" dy="18">mode</tspan><tspan x="650" dy="18">status</tspan><tspan x="650" dy="18">tasks[]</tspan><tspan x="650" dy="18">taskResults[]</tspan><tspan x="650" dy="18">contextBundles[]</tspan><tspan x="650" dy="18">providerResponses[]</tspan><tspan x="650" dy="18">normalizedResponses[]</tspan><tspan x="650" dy="18">comparisonReports[]</tspan></text>
  </g>
  <g id="run-task">
    <rect x="460" y="560" width="220" height="130" rx="12" ry="12" fill="#E0F2FE" stroke="#0284C7" stroke-width="2"/>
    <text x="570" y="585" text-anchor="middle" font-family="Helvetica, Arial, sans-serif" font-size="14" fill="#111827"><tspan x="570" dy="0">RunTask</tspan><tspan x="570" dy="18">taskKind</tspan><tspan x="570" dy="18">role</tspan><tspan x="570" dy="18">provider</tspan><tspan x="570" dy="18">dependsOn[]</tspan><tspan x="570" dy="18">status</tspan></text>
  </g>
  <g id="task-result">
    <rect x="720" y="560" width="220" height="130" rx="12" ry="12" fill="#E0F2FE" stroke="#0284C7" stroke-width="2"/>
    <text x="830" y="612" text-anchor="middle" font-family="Helvetica, Arial, sans-serif" font-size="14" fill="#111827"><tspan x="830" dy="0">TaskResult</tspan><tspan x="830" dy="18">summary</tspan><tspan x="830" dy="18">sourceArtifactIds[]</tspan></text>
  </g>
  <g id="context-bundle">
    <rect x="980" y="560" width="240" height="130" rx="12" ry="12" fill="#E0F2FE" stroke="#0284C7" stroke-width="2"/>
    <text x="1100" y="594" text-anchor="middle" font-family="Helvetica, Arial, sans-serif" font-size="14" fill="#111827"><tspan x="1100" dy="0">ContextBundle</tspan><tspan x="1100" dy="18">files[]</tspan><tspan x="1100" dy="18">diffs[]</tspan><tspan x="1100" dy="18">logs[]</tspan><tspan x="1100" dy="18">metadata.artifactId</tspan></text>
  </g>
  <g id="provider-response">
    <rect x="1260" y="560" width="240" height="130" rx="12" ry="12" fill="#E0F2FE" stroke="#0284C7" stroke-width="2"/>
    <text x="1380" y="594" text-anchor="middle" font-family="Helvetica, Arial, sans-serif" font-size="14" fill="#111827"><tspan x="1380" dy="0">ProviderResponse</tspan><tspan x="1380" dy="18">rawTextRef</tspan><tspan x="1380" dy="18">rawJsonRef</tspan><tspan x="1380" dy="18">usage</tspan><tspan x="1380" dy="18">externalRefs[]</tspan></text>
  </g>
  <g id="normalized">
    <rect x="980" y="730" width="240" height="130" rx="12" ry="12" fill="#E0F2FE" stroke="#0284C7" stroke-width="2"/>
    <text x="1100" y="773" text-anchor="middle" font-family="Helvetica, Arial, sans-serif" font-size="14" fill="#111827"><tspan x="1100" dy="0">NormalizedResponse</tspan><tspan x="1100" dy="18">summary</tspan><tspan x="1100" dy="18">findings[]</tspan><tspan x="1100" dy="18">suggestions[]</tspan></text>
  </g>
  <g id="report">
    <rect x="1260" y="730" width="240" height="130" rx="12" ry="12" fill="#E0F2FE" stroke="#0284C7" stroke-width="2"/>
    <text x="1380" y="773" text-anchor="middle" font-family="Helvetica, Arial, sans-serif" font-size="14" fill="#111827"><tspan x="1380" dy="0">ComparisonReport</tspan><tspan x="1380" dy="18">agreements[]</tspan><tspan x="1380" dy="18">differences[]</tspan><tspan x="1380" dy="18">recommendation</tspan></text>
  </g>
  <g id="artifact-meta">
    <rect x="520" y="910" width="320" height="160" rx="12" ry="12" fill="#DCFCE7" stroke="#16A34A" stroke-width="2"/>
    <text x="680" y="914" text-anchor="middle" font-family="Helvetica, Arial, sans-serif" font-size="14" fill="#111827"><tspan x="680" dy="0">Artifact metadata</tspan><tspan x="680" dy="18">artifactId</tspan><tspan x="680" dy="18">kind</tspan><tspan x="680" dy="18">path</tspan><tspan x="680" dy="18">runId</tspan><tspan x="680" dy="18">sessionId</tspan><tspan x="680" dy="18">turnId</tspan><tspan x="680" dy="18">metadataPath</tspan><tspan x="680" dy="18">mimeType</tspan><tspan x="680" dy="18">sizeBytes</tspan></text>
  </g>
  <g id="artifact-payload">
    <rect x="900" y="910" width="320" height="150" rx="12" ry="12" fill="#DCFCE7" stroke="#16A34A" stroke-width="2"/>
    <text x="1060" y="954" text-anchor="middle" font-family="Helvetica, Arial, sans-serif" font-size="14" fill="#111827"><tspan x="1060" dy="0">Artifact payload files</tspan><tspan x="1060" dy="18">context-bundle.json</tspan><tspan x="1060" dy="18">provider-response-text.txt</tspan><tspan x="1060" dy="18">provider-response-json.json</tspan><tspan x="1060" dy="18">*.artifact.json</tspan></text>
  </g>
  <g id="artifact-links">
    <rect x="1260" y="910" width="440" height="150" rx="12" ry="12" fill="#F9FAFB" stroke="#6B7280" stroke-width="2" stroke-dasharray="8 6"/>
    <text x="1480" y="963" text-anchor="middle" font-family="Helvetica, Arial, sans-serif" font-size="14" fill="#111827"><tspan x="1480" dy="0">Artifact links</tspan><tspan x="1480" dy="18">SessionTurn.artifactIds[] -&gt; raw output artifacts</tspan><tspan x="1480" dy="18">TaskResult.sourceArtifactIds[] -&gt; provider output artifacts</tspan><tspan x="1480" dy="18">ContextBundle.metadata.artifactId -&gt; context bundle artifact</tspan></text>
  </g>
  <g id="vo-note">
    <rect x="1260" y="280" width="440" height="210" rx="12" ry="12" fill="#F9FAFB" stroke="#6B7280" stroke-width="2" stroke-dasharray="8 6"/>
    <text x="1480" y="318" text-anchor="middle" font-family="Helvetica, Arial, sans-serif" font-size="14" fill="#111827"><tspan x="1480" dy="0">Value object note</tspan><tspan x="1480" dy="18">Usage</tspan><tspan x="1480" dy="18">Citation</tspan><tspan x="1480" dy="18">ConfidenceScore</tspan><tspan x="1480" dy="18">TaskDependency</tspan><tspan x="1480" dy="18">FileRef</tspan><tspan x="1480" dy="18">DiffRef</tspan><tspan x="1480" dy="18">LogRef</tspan><tspan x="1480" dy="18">ExternalRef</tspan></text>
  </g>
</svg>
